<svg id="Layer_1" data-name="Layer 1" xmlns="http://www.w3.org/2000/svg" viewBox="0 0 250.2 250.2"><defs><style>.cls-1{fill:none;stroke-width:0.2px;}.cls-1,.cls-4{stroke:#1d1d1b;stroke-miterlimit:10;}.cls-2,.cls-3{font-size:145.14px;font-family:Apple-Chancery, Apple Chancery;}.cls-2{fill:#f0f0f0;}.cls-3,.cls-4{fill:#1d1d1b;}</style></defs><title>safari-pinned-tab</title><rect class="cls-1" x="0.1" y="0.1" width="250" height="250"/><text class="cls-2" transform="translate(0.1 153.73)">M</text><text class="cls-3" transform="translate(0.1 153.73)">M</text><text class="cls-2" transform="translate(125.87 178.76)">D</text><text class="cls-3" transform="translate(125.87 178.76)">D</text><path class="cls-4" d="M150.87,131.85a11.6,11.6,0,0,1,4.22-.25c7.3,1,15.09,5.25,17.55,12.59,2,6,0,12.8-4,17.68s-9.77,8-15.7,10.29c-4.83,1.82-9.86,3.11-14.54,5.28s-9.09,5.37-11.42,9.95c.56-4.57-5.81-11.66-8.55-15-4.19-5.06-9.15-9.42-13.34-14.47-6-7.21-10.41-17.12-6.87-25.75,3.32-8.11,13.3-13.06,21.78-10.93,10.6,2.66,12.61,11.6,15.68,21C139.45,138.37,145.11,133.22,150.87,131.85Z" transform="translate(-2.9 -2.9)"/></svg>